<mxfile host="app.diagrams.net" modified="2022-11-21T07:59:34.966Z" agent="5.0 (Windows NT 10.0; Win64; x64) AppleWebKit/537.36 (KHTML, like Gecko) Chrome/107.0.0.0 Safari/537.36" etag="MJlCBn1t7bbw4GvvsazO" version="20.5.3" type="github">
  <diagram id="83ruov8SGA-GgQLWP6Rh" name="Page-1">
    <mxGraphModel dx="1422" dy="794" grid="1" gridSize="10" guides="1" tooltips="1" connect="1" arrows="1" fold="1" page="1" pageScale="1" pageWidth="827" pageHeight="1169" math="0" shadow="0">
      <root>
        <mxCell id="0" />
        <mxCell id="1" parent="0" />
        <mxCell id="CFufstt4zU-mSJyrU1qk-3" value="" style="edgeStyle=orthogonalEdgeStyle;rounded=0;orthogonalLoop=1;jettySize=auto;html=1;" edge="1" parent="1" source="CFufstt4zU-mSJyrU1qk-1" target="CFufstt4zU-mSJyrU1qk-2">
          <mxGeometry relative="1" as="geometry" />
        </mxCell>
        <mxCell id="CFufstt4zU-mSJyrU1qk-4" value="更新到这个节点" style="edgeLabel;html=1;align=center;verticalAlign=middle;resizable=0;points=[];" vertex="1" connectable="0" parent="CFufstt4zU-mSJyrU1qk-3">
          <mxGeometry x="-0.3" relative="1" as="geometry">
            <mxPoint x="21" y="-10" as="offset" />
          </mxGeometry>
        </mxCell>
        <mxCell id="CFufstt4zU-mSJyrU1qk-1" value="proj_name&lt;br&gt;author" style="rounded=0;whiteSpace=wrap;html=1;" vertex="1" parent="1">
          <mxGeometry x="70" y="260" width="120" height="60" as="geometry" />
        </mxCell>
        <mxCell id="CFufstt4zU-mSJyrU1qk-6" value="" style="edgeStyle=orthogonalEdgeStyle;rounded=0;orthogonalLoop=1;jettySize=auto;html=1;" edge="1" parent="1" source="CFufstt4zU-mSJyrU1qk-2" target="CFufstt4zU-mSJyrU1qk-5">
          <mxGeometry relative="1" as="geometry" />
        </mxCell>
        <mxCell id="CFufstt4zU-mSJyrU1qk-2" value="static&lt;br&gt;analysis" style="rounded=0;whiteSpace=wrap;html=1;" vertex="1" parent="1">
          <mxGeometry x="330" y="260" width="120" height="60" as="geometry" />
        </mxCell>
        <mxCell id="CFufstt4zU-mSJyrU1qk-8" value="" style="edgeStyle=orthogonalEdgeStyle;rounded=0;orthogonalLoop=1;jettySize=auto;html=1;" edge="1" parent="1" source="CFufstt4zU-mSJyrU1qk-5" target="CFufstt4zU-mSJyrU1qk-7">
          <mxGeometry relative="1" as="geometry" />
        </mxCell>
        <mxCell id="CFufstt4zU-mSJyrU1qk-5" value="打开vs2017&lt;br&gt;配置" style="rounded=0;whiteSpace=wrap;html=1;" vertex="1" parent="1">
          <mxGeometry x="520" y="260" width="120" height="60" as="geometry" />
        </mxCell>
        <mxCell id="CFufstt4zU-mSJyrU1qk-10" value="" style="edgeStyle=orthogonalEdgeStyle;rounded=0;orthogonalLoop=1;jettySize=auto;html=1;" edge="1" parent="1" source="CFufstt4zU-mSJyrU1qk-7" target="CFufstt4zU-mSJyrU1qk-9">
          <mxGeometry relative="1" as="geometry" />
        </mxCell>
        <mxCell id="CFufstt4zU-mSJyrU1qk-7" value="编译" style="rounded=0;whiteSpace=wrap;html=1;" vertex="1" parent="1">
          <mxGeometry x="707" y="260" width="120" height="60" as="geometry" />
        </mxCell>
        <mxCell id="CFufstt4zU-mSJyrU1qk-14" value="" style="edgeStyle=orthogonalEdgeStyle;rounded=0;orthogonalLoop=1;jettySize=auto;html=1;" edge="1" parent="1" source="CFufstt4zU-mSJyrU1qk-9" target="CFufstt4zU-mSJyrU1qk-13">
          <mxGeometry relative="1" as="geometry" />
        </mxCell>
        <mxCell id="CFufstt4zU-mSJyrU1qk-9" value="ctrl+F5" style="rounded=0;whiteSpace=wrap;html=1;" vertex="1" parent="1">
          <mxGeometry x="910" y="260" width="120" height="60" as="geometry" />
        </mxCell>
        <mxCell id="CFufstt4zU-mSJyrU1qk-11" value="" style="endArrow=classic;html=1;rounded=0;" edge="1" parent="1" source="CFufstt4zU-mSJyrU1qk-7">
          <mxGeometry width="50" height="50" relative="1" as="geometry">
            <mxPoint x="730" y="410" as="sourcePoint" />
            <mxPoint x="767" y="360" as="targetPoint" />
          </mxGeometry>
        </mxCell>
        <mxCell id="CFufstt4zU-mSJyrU1qk-12" value="输出buildlog" style="text;html=1;strokeColor=none;fillColor=none;align=center;verticalAlign=middle;whiteSpace=wrap;rounded=0;" vertex="1" parent="1">
          <mxGeometry x="740" y="360" width="60" height="30" as="geometry" />
        </mxCell>
        <mxCell id="CFufstt4zU-mSJyrU1qk-13" value="跑测试" style="rounded=0;whiteSpace=wrap;html=1;" vertex="1" parent="1">
          <mxGeometry x="1100" y="260" width="120" height="60" as="geometry" />
        </mxCell>
        <mxCell id="CFufstt4zU-mSJyrU1qk-15" value="" style="endArrow=classic;html=1;rounded=0;exitX=0.5;exitY=1;exitDx=0;exitDy=0;" edge="1" parent="1" source="CFufstt4zU-mSJyrU1qk-13">
          <mxGeometry width="50" height="50" relative="1" as="geometry">
            <mxPoint x="1000" y="340" as="sourcePoint" />
            <mxPoint x="1160" y="360" as="targetPoint" />
          </mxGeometry>
        </mxCell>
        <mxCell id="CFufstt4zU-mSJyrU1qk-16" value="输出testlog" style="text;html=1;strokeColor=none;fillColor=none;align=center;verticalAlign=middle;whiteSpace=wrap;rounded=0;" vertex="1" parent="1">
          <mxGeometry x="1130" y="360" width="60" height="30" as="geometry" />
        </mxCell>
      </root>
    </mxGraphModel>
  </diagram>
</mxfile>
